#!OML:ASF H:\MichaelJackson\Top Level 1\Subject 1\Session 1\male.ASF
:FULLY-SPECIFIED
:DEGREES
168
root 23.1146 17.0885 5.97199 7.38512 61.3515 -8.39705
lowerback 8.46107 2.31635 2.93999
upperback 1.48067 3.28881 -2.34428
thorax -2.8973 1.61596 -4.43725
lowerneck -7.38964 -5.82069 0.0853797
upperneck -2.13501 -7.75301 5.01625
head 0.774952 -3.7935 1.31098
rclavicle 1.35174e-014 -7.95139e-016
rhumerus -55.6967 5.68525 -97.3561
rradius 42.2578
rwrist 2.50766
rhand -14.5933 -15.4332
rfingers 7.12502
rthumb 11.557 -45.0946
lclavicle 1.35174e-014 -7.95139e-016
lhumerus -42.3285 -15.8011 94.8923
lradius 70.8256
lwrist 24.8573
lhand -18.9757 3.99376
lfingers 7.12502
lthumb 7.3286 33.8468
rfemur -55.0385 7.10867 5.14773
rtibia 54.7115
rfoot 16.9966 4.00653
rtoes 29.7948
lfemur -32.6327 -4.5013 -18.0328
ltibia 34.6341
lfoot -16.7795 -8.0996
ltoes 15.5323
169
root 23.1648 17.0833 6.13036 6.4801 62.9964 -9.03333
lowerback 8.37672 2.24273 3.29076
upperback 1.47841 3.22522 -2.18103
thorax -2.84884 1.58254 -4.45387
lowerneck -7.32619 -6.12439 -0.114329
upperneck -1.91303 -8.15637 5.21047
head 0.863522 -3.9887 1.38934
rclavicle -3.81667e-014 -9.54166e-015
rhumerus -54.9302 9.41755 -98.6696
rradius 41.6676
rwrist -0.826917
rhand -14.1143 -15.8899
rfingers 7.12502
rthumb 12.0189 -45.5248
lclavicle -3.81667e-014 -9.54166e-015
lhumerus -42.2562 -15.8221 95.1129
lradius 69.9645
lwrist 24.5315
lhand -18.7019 4.1352
lfingers 7.12502
lthumb 7.59286 33.9789
rfemur -54.4949 7.57312 4.05897
rtibia 52.2715
rfoot 17.0115 5.31951
rtoes 29.3354
lfemur -32.3134 -4.64596 -17.572
ltibia 35.2362
lfoot -17.5435 -9.16906
ltoes 14.9564
170
root 23.2168 17.0761 6.28967 5.45496 64.653 -9.72714
lowerback 8.26524 2.19127 3.5495
upperback 1.49583 3.18278 -1.97589
thorax -2.77059 1.56179 -4.37493
lowerneck -7.24637 -6.44686 -0.325697
upperneck -1.70002 -8.584 5.37394
head 0.948075 -4.19692 1.45934
rclavicle -4.1546e-014 -2.62396e-014
rhumerus -54.6178 13.0338 -99.8601
rradius 41.4587
rwrist -3.91568
rhand -13.8085 -16.3326
rfingers 7.12502
rthumb 12.3137 -45.95
lclavicle -4.1546e-014 -2.62396e-014
lhumerus -42.1784 -15.8612 95.3904
lradius 69.0627
lwrist 24.2129
lhand -18.4192 4.33209
lfingers 7.12502
lthumb 7.86573 34.1658
rfemur -53.7479 8.02594 3.00536
rtibia 49.8941
rfoot 17.0017 5.9364
rtoes 29.1205
lfemur -31.8862 -4.74613 -17.1393
ltibia 35.7068
lfoot -18.223 -10.274
ltoes 14.4511
171
root 23.2706 17.0673 6.45006 4.30725 66.3404 -10.4856
lowerback 8.11625 2.14671 3.72131
upperback 1.53038 3.14108 -1.73444
thorax -2.66051 1.54349 -4.207
lowerneck -7.14148 -6.7824 -0.566371
upperneck -1.48756 -9.02756 5.52823
head 1.03166 -4.41371 1.53105
rclavicle 1.03169e-013 -4.77083e-015
rhumerus -54.7823 16.207 -100.875
rradius 41.6072
rwrist -6.4027
rhand -13.6863 -16.7071
rfingers 7.12502
rthumb 12.4316 -46.3174
lclavicle 1.03169e-013 -4.77083e-015
lhumerus -42.1022 -15.9111 95.7122
lradius 68.1381
lwrist 23.9241
lhand -18.1362 4.61101
lfingers 7.12502
lthumb 8.13885 34.4343
rfemur -52.8477 8.44975 2.0021
rtibia 47.7321
rfoot 16.9818 5.80759
rtoes 29.1165
lfemur -31.4222 -4.81815 -16.7407
ltibia 36.1914
lfoot -18.8936 -11.3671
ltoes 14.0018
172
root 23.3264 17.0576 6.61162 2.98726 68.0597 -11.355
lowerback 7.93792 2.10012 3.83133
upperback 1.5877 3.09033 -1.46844
thorax -2.51603 1.5227 -3.97632
lowerneck -7.04129 -7.12867 -0.816744
upperneck -1.25832 -9.48646 5.67137
head 1.12392 -4.63808 1.59926
rclavicle -3.49861e-014 2.38542e-014
rhumerus -55.2947 18.7387 -101.688
rradius 41.9921
rwrist -8.09858
rhand -13.7105 -16.9935
rfingers 7.12502
rthumb 12.4082 -46.6052
lclavicle -3.49861e-014 2.38542e-014
lhumerus -42.014 -15.9884 96.0484
lradius 67.2016
lwrist 23.6789
lhand -17.8454 4.97295
lfingers 7.12502
lthumb 8.41958 34.7851
rfemur -51.8029 8.84167 1.08027
rtibia 45.8325
rfoot 17.0437 4.96075
rtoes 29.4152
lfemur -30.9078 -4.85163 -16.3736
ltibia 36.6799
lfoot -19.5463 -12.4215
ltoes 13.619
